<svg xmlns="http://www.w3.org/2000/svg" viewBox="0 0 489.96 178.82"><defs><style>.cls-1{fill:#fff;}.cls-2{fill:#3d3d3d;}</style></defs><title>Asset 2</title><g id="Layer_2" data-name="Layer 2"><g id="Layer_3" data-name="Layer 3"><path class="cls-1" d="M206.15,67.51q0-29.32,19.4-48.42t46-19.1Q301,0,320.22,19.2t19.25,48.52q0,29.12-19,48.37t-48,19.25q-28.92,0-47.61-19.15T206.15,67.51Z"/><path class="cls-1" d="M99.61,11V42.25q-20.8-12.5-36.43-12.5t-25,10.74Q28.81,51.24,28.81,69.4q0,17.19,9.86,27.49T65,107.19q14.45,0,34.57-11.62v31.05q-22.56,7.52-37.6,7.52-25.88,0-43.95-19T0,68.81Q0,41,18.41,21.69T63.18,2.41Q80.18,2.41,99.61,11Z"/><path class="cls-1" d="M115.12,4.17h42.24q19.26,0,30.46,10.15T199,41.74a47.08,47.08,0,0,1-5.14,20.5q-5.14,10.64-18.93,16.69l35.88,53.45H179.06L145.88,82.78h-3.12v49.61H115.12ZM142.95,27v33.4h6q21.66,0,21.66-17.68A13.62,13.62,0,0,0,165,31.26Q159.32,27,149.32,27Z"/><path class="cls-1" d="M338.69,4.17h24.6L384,91.57l21.54-87.4h17.58L444.3,92,465.36,4.17H490l-31,128.22h-26l-18.8-78.61L395.3,132.39H369.41Z"/><path class="cls-2" d="M299.74,42.51a45.49,45.49,0,0,0-7.76.34A33.26,33.26,0,0,0,266.63,29.3c-18.56-.78-34.26,14-35.06,33.05,0,0,0,.07,0,.11-3.59,4.21-7.47,9.19-11.43,14.7q7.67,2.09,14.67,4.52c.28-.45,25.38,10.56,33.65,16.4a55.36,55.36,0,0,1,13.77,13.26,41.81,41.81,0,0,1-.85-10.37,76,76,0,0,1,1.19-8.28A41.84,41.84,0,0,1,324.92,61a42.21,42.21,0,0,1,6.85.86C327.49,51.19,314.91,43.15,299.74,42.51Z"/><path class="cls-1" d="M31.79,148.27V152a16.45,16.45,0,0,0-7.16-1.91,9.91,9.91,0,0,0-7.07,2.71,9.14,9.14,0,0,0,.07,13.37A10.49,10.49,0,0,0,25,168.85a13.92,13.92,0,0,0,6.8-2v3.76a14.86,14.86,0,0,1-7.09,1.74,13.35,13.35,0,0,1-9.56-3.79,12.16,12.16,0,0,1-4-9.13,12,12,0,0,1,3.9-9,13.1,13.1,0,0,1,9.4-3.74A18.83,18.83,0,0,1,31.79,148.27Z"/><path class="cls-1" d="M34.51,163.65A7.76,7.76,0,0,1,37,158a8,8,0,0,1,5.79-2.49,8.16,8.16,0,0,1,5.88,2.45,7.74,7.74,0,0,1,2.51,5.72,8,8,0,0,1-2.47,5.79,7.76,7.76,0,0,1-5.7,2.5,8.31,8.31,0,0,1-6-2.48A7.87,7.87,0,0,1,34.51,163.65Zm13.53,0a4.66,4.66,0,0,0-1.51-3.46,5,5,0,0,0-3.59-1.47,5.11,5.11,0,0,0-3.68,1.49,4.76,4.76,0,0,0-1.54,3.55,4.61,4.61,0,0,0,1.56,3.45,5.14,5.14,0,0,0,3.66,1.48,4.92,4.92,0,0,0,3.57-1.51A4.81,4.81,0,0,0,48,163.66Z"/><path class="cls-1" d="M57.81,155.92v3.21A10,10,0,0,1,60,156.35a4.17,4.17,0,0,1,2.73-.86,6,6,0,0,1,1.36.23L63,159a8.31,8.31,0,0,0-1.25-.19A3.72,3.72,0,0,0,59,160a4,4,0,0,0-1.12,2.9v8.64H54.6V155.92Z"/><path class="cls-1" d="M70.16,155.92v3.14a7,7,0,0,1,6-3.57,6.78,6.78,0,0,1,5.2,2.41,8.29,8.29,0,0,1,2.18,5.75,8.44,8.44,0,0,1-2.21,5.84,6.79,6.79,0,0,1-5.21,2.46,6.64,6.64,0,0,1-3.33-.91,7.25,7.25,0,0,1-2.63-2.63v10.41H66.91v-22.9Zm10,7.73a4.92,4.92,0,0,0-1.55-3.6,5,5,0,0,0-3.64-1.54A5.08,5.08,0,0,0,71.26,160a4.89,4.89,0,0,0-1.56,3.61,5.12,5.12,0,0,0,1.54,3.7,4.91,4.91,0,0,0,3.63,1.57,5.29,5.29,0,0,0,5.26-5.27Z"/><path class="cls-1" d="M87.16,155.92h3.29v8.79q0,4.06,3.57,4.06a3.13,3.13,0,0,0,2.51-1.09,4.44,4.44,0,0,0,.93-3v-8.79h3.25v9.32a6.49,6.49,0,0,1-1.91,4.82,7.26,7.26,0,0,1-9.77,0,6.71,6.71,0,0,1-1.87-4.93Z"/><path class="cls-1" d="M114.09,157.77l-2.19,1.93a11.69,11.69,0,0,0-1.47-.92,3.26,3.26,0,0,0-1.47-.31q-2,0-2,1.47,0,1.06,2.54,2.05a10.06,10.06,0,0,1,3.66,2.19,4,4,0,0,1,1.11,2.87,4.5,4.5,0,0,1-1.61,3.43,5.43,5.43,0,0,1-3.78,1.46,6.36,6.36,0,0,1-5.42-3.06l2.59-1.25a4.06,4.06,0,0,0,2.83,1.32,3,3,0,0,0,1.79-.56,1.59,1.59,0,0,0,.77-1.29q0-1.3-2.68-2.34a10.67,10.67,0,0,1-3.71-2.11,3.65,3.65,0,0,1-1-2.63,4.14,4.14,0,0,1,1.46-3.24,5.35,5.35,0,0,1,3.68-1.29Q111.35,155.49,114.09,157.77Z"/><path class="cls-1" d="M135.71,158.48l5,5.34,2.72-3,2.32,2.08-2.86,3.21,5.07,5.35h-4.3l-2.87-3q-4.06,3.9-7.93,3.9a8.54,8.54,0,0,1-5.74-2.07,6.27,6.27,0,0,1-2.42-4.91,5.48,5.48,0,0,1,1.08-3.49,25,25,0,0,1,4.95-4q-.36-.53-.6-.85a12,12,0,0,1-2-3.11,6,6,0,0,1-.31-1.77,5.4,5.4,0,0,1,1.68-3.83,6,6,0,0,1,4.5-1.74,5.78,5.78,0,0,1,4.18,1.66,5.4,5.4,0,0,1,1.72,4Q139.91,155.68,135.71,158.48Zm2.91,7.65-5.65-6a20.19,20.19,0,0,0-4.06,3.12,3.31,3.31,0,0,0-.85,2.1,3.42,3.42,0,0,0,1.41,2.73,5.2,5.2,0,0,0,3.39,1.14,5.48,5.48,0,0,0,2.79-.75A16.42,16.42,0,0,0,138.62,166.13Zm-5.13-9.94a15.31,15.31,0,0,0,2.49-2,2.74,2.74,0,0,0,.83-1.89,2.36,2.36,0,0,0-.78-1.85,3.5,3.5,0,0,0-4.18,0,2.16,2.16,0,0,0-.8,1.72Q131,153.63,133.49,156.18Z"/><path class="cls-1" d="M159.41,147.44h5.22a9.91,9.91,0,0,1,6.34,1.94,6.05,6.05,0,0,1,2.45,5,6.37,6.37,0,0,1-1.58,4.27,8.82,8.82,0,0,1-4.94,2.61l7,10.3h-3.77l-6.68-9.9h-.74v9.9h-3.29Zm3.29,2.91v8.39q7.27.15,7.28-4.21a3.67,3.67,0,0,0-.85-2.5,4.29,4.29,0,0,0-2.27-1.32A18.54,18.54,0,0,0,162.7,150.35Z"/><path class="cls-1" d="M192,164.35h-13.3a5.23,5.23,0,0,0,2,3.51A5.63,5.63,0,0,0,184,169a5.82,5.82,0,0,0,4.69-2.32l2.4,1.81a8.68,8.68,0,0,1-7.24,3.5,7.84,7.84,0,0,1-5.82-2.38,8.1,8.1,0,0,1-2.34-5.92,7.93,7.93,0,0,1,2.37-5.73,8,8,0,0,1,11.55,0A8.66,8.66,0,0,1,192,164.35Zm-13-2.63h9.52a5,5,0,0,0-4.69-3.21A5,5,0,0,0,179,161.72Z"/><path class="cls-1" d="M199,155.92v3.14a7,7,0,0,1,6-3.57,6.78,6.78,0,0,1,5.2,2.41,8.28,8.28,0,0,1,2.18,5.75,8.44,8.44,0,0,1-2.21,5.84,6.79,6.79,0,0,1-5.21,2.46,6.65,6.65,0,0,1-3.33-.91,7.25,7.25,0,0,1-2.63-2.63v10.41H195.8v-22.9Zm10,7.73a4.92,4.92,0,0,0-1.55-3.6,5,5,0,0,0-3.64-1.54,5.08,5.08,0,0,0-3.69,1.53,4.9,4.9,0,0,0-1.56,3.61,5.11,5.11,0,0,0,1.54,3.7,4.92,4.92,0,0,0,3.63,1.57,5.29,5.29,0,0,0,5.26-5.27Z"/><path class="cls-1" d="M215.44,163.65A7.76,7.76,0,0,1,218,158a8,8,0,0,1,5.79-2.49,8.16,8.16,0,0,1,5.88,2.45,7.73,7.73,0,0,1,2.51,5.72,8,8,0,0,1-2.47,5.79,7.77,7.77,0,0,1-5.7,2.5,8.31,8.31,0,0,1-6-2.48A7.87,7.87,0,0,1,215.44,163.65Zm13.53,0a4.66,4.66,0,0,0-1.51-3.46,5,5,0,0,0-3.59-1.47,5.11,5.11,0,0,0-3.68,1.49,4.76,4.76,0,0,0-1.54,3.55,4.61,4.61,0,0,0,1.56,3.45,5.15,5.15,0,0,0,3.66,1.48,4.92,4.92,0,0,0,3.57-1.51A4.8,4.8,0,0,0,229,163.66Z"/><path class="cls-1" d="M245.07,157.77l-2.19,1.93a11.62,11.62,0,0,0-1.47-.92,3.26,3.26,0,0,0-1.47-.31q-2,0-2,1.47,0,1.06,2.54,2.05a10.06,10.06,0,0,1,3.66,2.19,4,4,0,0,1,1.12,2.87,4.5,4.5,0,0,1-1.61,3.43,5.43,5.43,0,0,1-3.78,1.46,6.36,6.36,0,0,1-5.42-3.06l2.59-1.25a4.06,4.06,0,0,0,2.83,1.32,3,3,0,0,0,1.79-.56,1.59,1.59,0,0,0,.77-1.29q0-1.3-2.68-2.34a10.66,10.66,0,0,1-3.71-2.11,3.64,3.64,0,0,1-1-2.63,4.14,4.14,0,0,1,1.46-3.24,5.35,5.35,0,0,1,3.67-1.29Q242.33,155.49,245.07,157.77Z"/><path class="cls-1" d="M248,150.8a2.4,2.4,0,0,1,.76-1.77,2.47,2.47,0,0,1,1.8-.75,2.51,2.51,0,0,1,0,5,2.49,2.49,0,0,1-1.8-.74A2.39,2.39,0,0,1,248,150.8Zm.93,5.12h3.25v15.59h-3.25Z"/><path class="cls-1" d="M258.17,151.38h3.29v4.54h3.25v3h-3.25v12.58h-3.29V158.92h-2.59v-3h2.59Z"/><path class="cls-1" d="M266.73,163.65a7.76,7.76,0,0,1,2.52-5.68,8,8,0,0,1,5.79-2.49,8.16,8.16,0,0,1,5.88,2.45,7.73,7.73,0,0,1,2.51,5.72,8,8,0,0,1-2.47,5.79,7.77,7.77,0,0,1-5.7,2.5,8.31,8.31,0,0,1-6-2.48A7.87,7.87,0,0,1,266.73,163.65Zm13.53,0a4.66,4.66,0,0,0-1.51-3.46,5,5,0,0,0-3.59-1.47,5.11,5.11,0,0,0-3.68,1.49,4.76,4.76,0,0,0-1.54,3.55,4.61,4.61,0,0,0,1.56,3.45,5.15,5.15,0,0,0,3.66,1.48,4.92,4.92,0,0,0,3.57-1.51A4.8,4.8,0,0,0,280.26,163.66Z"/><path class="cls-1" d="M290,155.92v3.21a10,10,0,0,1,2.15-2.79,4.17,4.17,0,0,1,2.73-.86,6,6,0,0,1,1.36.23l-1,3.29a8.29,8.29,0,0,0-1.25-.19,3.72,3.72,0,0,0-2.79,1.16,4,4,0,0,0-1.12,2.9v8.64h-3.29V155.92Z"/><path class="cls-1" d="M299,155.92h3.73l5.66,8.47,3.91-8.47h3.39l-10.53,22.9h-3.43l5.15-11.15Z"/><path class="cls-1" d="M325.06,163.65a7.76,7.76,0,0,1,2.52-5.68,8,8,0,0,1,5.79-2.49,8.16,8.16,0,0,1,5.88,2.45,7.73,7.73,0,0,1,2.51,5.72,8,8,0,0,1-2.47,5.79,7.77,7.77,0,0,1-5.7,2.5,8.31,8.31,0,0,1-6-2.48A7.87,7.87,0,0,1,325.06,163.65Zm13.53,0a4.66,4.66,0,0,0-1.51-3.46,5,5,0,0,0-3.59-1.47,5.11,5.11,0,0,0-3.68,1.49,4.76,4.76,0,0,0-1.54,3.55,4.61,4.61,0,0,0,1.56,3.45,5.15,5.15,0,0,0,3.66,1.48,4.92,4.92,0,0,0,3.57-1.51A4.8,4.8,0,0,0,338.59,163.66Z"/><path class="cls-1" d="M354.49,147.23v3.33a4.69,4.69,0,0,0-2.48-1,1.62,1.62,0,0,0-1.36.64,2.88,2.88,0,0,0-.49,1.79v3.9h4.33v3h-4.33v12.58h-3.29V158.92H344v-3h2.87v-3.68a6.26,6.26,0,0,1,1.37-4.24,4.59,4.59,0,0,1,3.66-1.58A5.46,5.46,0,0,1,354.49,147.23Z"/><path class="cls-1" d="M382,146.51l7.75,17.77L397,147.47h3.39l-10.67,24.79L382,154.46l-7.75,17.81-10.69-24.79H367l7.33,17Z"/><path class="cls-1" d="M404.55,155.92v3.21a10,10,0,0,1,2.15-2.79,4.17,4.17,0,0,1,2.73-.86,6,6,0,0,1,1.36.23l-1,3.29a8.29,8.29,0,0,0-1.25-.19,3.72,3.72,0,0,0-2.79,1.16,4,4,0,0,0-1.12,2.9v8.64h-3.29V155.92Z"/><path class="cls-1" d="M413,150.8a2.4,2.4,0,0,1,.76-1.77,2.47,2.47,0,0,1,1.8-.75,2.51,2.51,0,0,1,0,5,2.49,2.49,0,0,1-1.8-.74A2.39,2.39,0,0,1,413,150.8Zm.93,5.12h3.25v15.59H413.9Z"/><path class="cls-1" d="M423.31,151.38h3.29v4.54h3.25v3H426.6v12.58h-3.29V158.92h-2.59v-3h2.59Z"/><path class="cls-1" d="M432.33,150.8a2.4,2.4,0,0,1,.76-1.77,2.47,2.47,0,0,1,1.8-.75,2.51,2.51,0,0,1,0,5,2.49,2.49,0,0,1-1.8-.74A2.39,2.39,0,0,1,432.33,150.8Zm.93,5.12h3.25v15.59h-3.25Z"/><path class="cls-1" d="M441,171.51V155.92h3.21v2.59a13.09,13.09,0,0,1,2.57-2.3,4.72,4.72,0,0,1,2.57-.73,5.13,5.13,0,0,1,3.62,1.4,4.44,4.44,0,0,1,1.5,3.36v11.26h-3.29v-10.3a2.86,2.86,0,0,0-.82-2.1,2.81,2.81,0,0,0-2.09-.83,3.62,3.62,0,0,0-2.83,1.39,5,5,0,0,0-1.19,3.35v8.48Z"/><path class="cls-1" d="M471.16,155.92h3.21v15a7.72,7.72,0,0,1-2.28,5.62,7.44,7.44,0,0,1-5.51,2.31,8.14,8.14,0,0,1-4.52-1.33,7.68,7.68,0,0,1-3-4.05h3.4A4.74,4.74,0,0,0,466.7,176a4.25,4.25,0,0,0,3.16-1.33,4.41,4.41,0,0,0,1.3-3.2v-2.95a7.08,7.08,0,0,1-6,3.46,6.8,6.8,0,0,1-5.21-2.47,8.43,8.43,0,0,1-2.22-5.83,8.31,8.31,0,0,1,2.16-5.76,6.71,6.71,0,0,1,5.15-2.4,6.9,6.9,0,0,1,6.12,3.72Zm.45,7.77a4.9,4.9,0,0,0-1.52-3.67,5.21,5.21,0,0,0-3.77-1.47,5,5,0,0,0-3.63,1.53,4.8,4.8,0,0,0-1.57,3.53,5.14,5.14,0,0,0,1.55,3.74,5,5,0,0,0,3.68,1.57,5.24,5.24,0,0,0,5.25-5.23Z"/></g></g></svg>